<svg xmlns="http://www.w3.org/2000/svg" xmlns:xlink="http://www.w3.org/1999/xlink" viewBox="0 0 94.67 25.52"><defs><style>.cls-1{fill:none;clip-rule:evenodd;}.cls-2{clip-path:url(#clip-path);}.cls-3{fill:#f06022;}.cls-4,.cls-5{fill:#f16322;}.cls-10,.cls-12,.cls-14,.cls-17,.cls-19,.cls-22,.cls-23,.cls-26,.cls-28,.cls-30,.cls-32,.cls-33,.cls-35,.cls-39,.cls-41,.cls-43,.cls-44,.cls-47,.cls-5,.cls-50,.cls-52,.cls-55,.cls-56,.cls-59,.cls-62,.cls-64,.cls-65,.cls-67,.cls-7,.cls-70,.cls-71,.cls-74,.cls-76,.cls-79,.cls-8,.cls-80,.cls-83,.cls-86,.cls-88,.cls-90,.cls-92{fill-rule:evenodd;}.cls-6,.cls-7{fill:#f16522;}.cls-8,.cls-9{fill:#f16722;}.cls-10,.cls-11{fill:#f16a22;}.cls-12,.cls-13{fill:#f26b21;}.cls-14,.cls-15{fill:#f26e21;}.cls-16,.cls-17{fill:#f26f21;}.cls-18{fill:#f27121;}.cls-19,.cls-20{fill:#f27321;}.cls-21,.cls-22{fill:#f37521;}.cls-23,.cls-24{fill:#f37721;}.cls-25,.cls-26{fill:#f37920;}.cls-27,.cls-28{fill:#f37b20;}.cls-29,.cls-30{fill:#f37c20;}.cls-31,.cls-32{fill:#f47e20;}.cls-33,.cls-34{fill:#f48020;}.cls-35,.cls-36{fill:#f48120;}.cls-37{fill:#f4821f;}.cls-38,.cls-39{fill:#f5851f;}.cls-40,.cls-41{fill:#f5871f;}.cls-42,.cls-43{fill:#f5881f;}.cls-44,.cls-45{fill:#f58a1f;}.cls-46{fill:#f68c1e;}.cls-47,.cls-48{fill:#f68e1e;}.cls-49,.cls-50{fill:#f68f1e;}.cls-51,.cls-52{fill:#f6911e;}.cls-53{fill:#f6921e;}.cls-54,.cls-55{fill:#f7941d;}.cls-56,.cls-57{fill:#f7971d;}.cls-58{fill:#f7981d;}.cls-59,.cls-60{fill:#f89a1c;}.cls-61,.cls-62{fill:#f89c1c;}.cls-63,.cls-64{fill:#f89e1c;}.cls-65,.cls-66{fill:#f89f1b;}.cls-67,.cls-68{fill:#f9a11b;}.cls-69,.cls-70{fill:#f9a31a;}.cls-71,.cls-72{fill:#f9a51a;}.cls-73,.cls-74{fill:#f9a719;}.cls-75{fill:#faa819;}.cls-76,.cls-77{fill:#faab18;}.cls-78,.cls-79{fill:#faac18;}.cls-80,.cls-81{fill:#fbae17;}.cls-82,.cls-83{fill:#fbb017;}.cls-84{fill:#fbb216;}.cls-85,.cls-86{fill:#fcb415;}.cls-87,.cls-88{fill:#fcb614;}.cls-89{fill:#fcb813;}.cls-90,.cls-91{fill:#fcb912;}.cls-92{fill:#fff;}</style><clipPath id="clip-path"><path class="cls-1" d="M13.39,16.88a1.31,1.31,0,0,0-1-.11,1.4,1.4,0,0,0-.81.65,1.41,1.41,0,0,0-.11,1,1.35,1.35,0,0,0,.66.81,1.31,1.31,0,0,0,1,.11,1.4,1.4,0,0,0,.81-.65,1.43,1.43,0,0,0,.11-1h0l1.4-1,.13.08a1.36,1.36,0,0,0,1.84-.54,1.34,1.34,0,0,0,.11-1,1.35,1.35,0,0,0-.66-.8,1.31,1.31,0,0,0-1-.11A1.4,1.4,0,0,0,15,15a1.38,1.38,0,0,0-.1,1l0,.08L13.59,17a2.12,2.12,0,0,0-.2-.12Zm-3.66-12a1.33,1.33,0,0,0-.92-.36,1.35,1.35,0,0,0-1,.4,1.32,1.32,0,0,0-.4,1,1.35,1.35,0,0,0,.4,1,1.36,1.36,0,0,0,2.32-1,1.45,1.45,0,0,0,0-.3L12,4.48a1.4,1.4,0,0,1,1.41,0l1.43.83a1.84,1.84,0,0,1,.4-.71l-1.43-.83a2.19,2.19,0,0,0-1.11-.29,2.22,2.22,0,0,0-1.11.29L9.73,4.88Zm-.92.45a.57.57,0,0,1,.38.16.55.55,0,0,1,.16.39.55.55,0,0,1-.16.38.51.51,0,0,1-.38.16.55.55,0,0,1-.54-.54.55.55,0,0,1,.16-.39.63.63,0,0,1,.38-.16Zm7.57,1.86a1.34,1.34,0,0,0,1-.14,1.7,1.7,0,0,0,.22-.15L19.5,8a1.65,1.65,0,0,1,.62.58,1.28,1.28,0,0,1,.21.7v1.58a1.89,1.89,0,0,1,.82,0V9.26a2.15,2.15,0,0,0-.34-1.14,2.63,2.63,0,0,0-.9-.85L18.05,6.2a1.36,1.36,0,0,0-.14-1,1.31,1.31,0,0,0-.82-.63,1.33,1.33,0,0,0-1,.13h0a1.35,1.35,0,0,0-.5,1.86,1.38,1.38,0,0,0,.82.63ZM17.26,6a.6.6,0,0,1-.26.33.55.55,0,0,1-.74-.2.59.59,0,0,1-.05-.41.52.52,0,0,1,.25-.33.55.55,0,0,1,.41-.06.56.56,0,0,1,.4.43.65.65,0,0,1,0,.24ZM20,13.91h0a1.4,1.4,0,0,1-.59-.75H14a1.31,1.31,0,0,1-.34.55,1.34,1.34,0,0,1-1.91,0,1.3,1.3,0,0,1-.34-.56H9.92v1.3a1.29,1.29,0,0,1,.55.33,1.35,1.35,0,0,1,.4,1,1.37,1.37,0,0,1-1.36,1.36,1.35,1.35,0,0,1-1.35-1.36,1.39,1.39,0,0,1,.39-1,1.32,1.32,0,0,1,.56-.33v-1.3h-3a1.17,1.17,0,0,1-.13.28,1.36,1.36,0,0,1-2.48-.33,1.35,1.35,0,0,1,.8-1.61V9.26a2.15,2.15,0,0,1,.34-1.14,2.63,2.63,0,0,1,.9-.85L7,6.47a1.89,1.89,0,0,0,.41.71L6,8a1.65,1.65,0,0,0-.62.58,1.28,1.28,0,0,0-.21.7v2.16a1.66,1.66,0,0,1,.37.14,1.38,1.38,0,0,1,.61.76H7.71V11.07a1.47,1.47,0,0,1-.55-.33,1.39,1.39,0,0,1-.39-1A1.35,1.35,0,0,1,8.12,8.42,1.37,1.37,0,0,1,9.48,9.78a1.35,1.35,0,0,1-.4,1,1.4,1.4,0,0,1-.55.33v1.25h2.92a1.36,1.36,0,0,1,1.29-.94,1.38,1.38,0,0,1,1.3.95h3.13V11.19a1.31,1.31,0,0,1-.55-.34,1.29,1.29,0,0,1-.4-.94l-2.29-.59a1.33,1.33,0,0,1-.23.3,1.35,1.35,0,0,1-1,.39,1.33,1.33,0,0,1-1.35-1.35A1.35,1.35,0,0,1,12.74,7.3a1.32,1.32,0,0,1,1,.4,1.36,1.36,0,0,1,.4.82l2.36.61a.74.74,0,0,1,.16-.19,1.32,1.32,0,0,1,1-.4A1.35,1.35,0,0,1,18.93,9.9a1.39,1.39,0,0,1-.39,1,1.47,1.47,0,0,1-.55.33v1.14H19.4c0-.09.07-.17.11-.26l0,0a1.36,1.36,0,0,1,.81-.61,1.38,1.38,0,0,1,1,.13A1.36,1.36,0,0,1,21.15,14v2.23a2.2,2.2,0,0,1-.35,1.18,2.25,2.25,0,0,1-.89.81l-.92.53a1.8,1.8,0,0,0-.42-.7l1-.56a1.37,1.37,0,0,0,.58-.51,1.4,1.4,0,0,0,.22-.75V14a1.2,1.2,0,0,1-.31-.13Zm1.14-.9a.55.55,0,0,0,.06-.41.56.56,0,0,0-.25-.33.54.54,0,0,0-.41,0,.49.49,0,0,0-.33.25l0,0a.58.58,0,0,0,0,.39.63.63,0,0,0,.25.33h0a.54.54,0,0,0,.41,0,.53.53,0,0,0,.32-.25Zm-5,5.42a1.4,1.4,0,0,1,1-.4,1.38,1.38,0,0,1,1,.4,1.35,1.35,0,0,1,.4,1,1.34,1.34,0,0,1-.4,1,1.32,1.32,0,0,1-1,.4,1.38,1.38,0,0,1-.94-.38l-2.37,1.36a2.2,2.2,0,0,1-1.11.3,2.17,2.17,0,0,1-1.1-.3L9.78,20.67a1.9,1.9,0,0,0,.4-.72L12,21a1.47,1.47,0,0,0,1.41,0l2.35-1.36h0a1.27,1.27,0,0,1,0-.28,1.35,1.35,0,0,1,.4-1Zm.58.58a.53.53,0,1,1-.16.38.53.53,0,0,1,.16-.38ZM8.33,18a1.33,1.33,0,0,0-.89.34L6,17.53l0,0A1.26,1.26,0,0,1,5.38,17a1.4,1.4,0,0,1-.22-.75v-1.6a2.07,2.07,0,0,1-.82,0v1.64a2.2,2.2,0,0,0,.35,1.18,2.14,2.14,0,0,0,.9.81L7,19.06a1.24,1.24,0,0,0,0,.33,1.37,1.37,0,0,0,1.36,1.36,1.35,1.35,0,0,0,1-.4,1.36,1.36,0,0,0-1-2.32Zm-.9.34-.06.06.06-.06Zm.9.48a.54.54,0,0,1,0,1.08A.51.51,0,0,1,8,19.77.53.53,0,0,1,8,19a.51.51,0,0,1,.38-.16ZM12.74,8.11a.59.59,0,0,0-.38.16.55.55,0,0,0-.16.39.55.55,0,0,0,.16.38.53.53,0,0,0,.38.16A.55.55,0,0,0,13.13,9a.57.57,0,0,0,0-.77.6.6,0,0,0-.39-.16Zm4.84,1.25a.56.56,0,0,1,.38.15.55.55,0,0,1,.16.39.55.55,0,0,1-.54.54.55.55,0,0,1-.39-.16A.56.56,0,0,1,17,9.9a.51.51,0,0,1,.54-.54Zm-4.84,3.92a.55.55,0,0,0,.39-.16.56.56,0,0,0,.15-.38.55.55,0,0,0-.15-.38.55.55,0,0,0-.39-.16.55.55,0,0,0-.38.16.51.51,0,0,0-.16.38.55.55,0,0,0,.54.54ZM8.51,10.16a.56.56,0,0,0,.15-.38.51.51,0,0,0-.54-.54.56.56,0,0,0-.38.15.55.55,0,0,0-.16.39.55.55,0,0,0,.54.54.55.55,0,0,0,.39-.16Zm1,5a.55.55,0,0,0-.54.54.51.51,0,0,0,.16.38.55.55,0,0,0,.38.16.55.55,0,0,0,.39-.16.55.55,0,0,0,.15-.38.56.56,0,0,0-.15-.38.55.55,0,0,0-.39-.16ZM4.34,11.48l.15-.05-.15.05Zm1,1.12a.52.52,0,0,0-.25-.33h0a.47.47,0,0,0-.4,0,.49.49,0,0,0-.33.25.54.54,0,0,0,.61.79A.58.58,0,0,0,5.32,13a.54.54,0,0,0,0-.41Zm7.22,5a.57.57,0,0,1,.41,0,.54.54,0,0,1,.26.33.58.58,0,0,1,0,.41.55.55,0,0,1-.32.26.53.53,0,0,1-.41-.05.5.5,0,0,1-.26-.32.49.49,0,0,1,0-.41.55.55,0,0,1,.32-.26Zm3.12-1.8a.58.58,0,0,1,0-.41.54.54,0,0,1,.74-.21.53.53,0,0,1,.21.73.52.52,0,0,1-.32.26.58.58,0,0,1-.41,0A.54.54,0,0,1,15.71,15.75Z"/></clipPath></defs><title>logo orange white</title><g id="Layer_2" data-name="Layer 2"><g id="Layer_1-2" data-name="Layer 1"><g class="cls-2"><rect class="cls-3" x="7.76" y="10.98" width="1.3" height="18.65" transform="translate(-13.38 17.46) rotate(-60.07)"/><rect class="cls-4" x="8.68" y="10.39" width="0.12" height="18.65" transform="translate(-12.71 17.48) rotate(-60.13)"/><rect class="cls-4" x="8.72" y="10.32" width="0.12" height="18.65" transform="translate(-12.63 17.47) rotate(-60.1)"/><polygon class="cls-5" points="0.71 14.98 0.77 14.87 16.94 24.18 16.88 24.29 0.71 14.98"/><rect class="cls-4" x="8.8" y="10.18" width="0.12" height="18.65" transform="translate(-12.47 17.48) rotate(-60.13)"/><polygon class="cls-5" points="0.79 14.84 0.85 14.73 17.02 24.04 16.96 24.14 0.79 14.84"/><rect class="cls-4" x="8.88" y="10.04" width="0.12" height="18.65" transform="translate(-12.3 17.46) rotate(-60.09)"/><rect class="cls-6" x="8.92" y="9.97" width="0.12" height="18.65" transform="translate(-12.22 17.46) rotate(-60.07)"/><rect class="cls-6" x="8.97" y="9.9" width="0.12" height="18.65" transform="translate(-12.14 17.45) rotate(-60.05)"/><polygon class="cls-7" points="0.95 14.56 1.01 14.45 17.18 23.76 17.12 23.86 0.95 14.56"/><rect class="cls-6" x="9.05" y="9.76" width="0.12" height="18.65" transform="translate(-11.98 17.45) rotate(-60.05)"/><rect class="cls-6" x="9.09" y="9.69" width="0.12" height="18.65" transform="translate(-11.9 17.45) rotate(-60.05)"/><polygon class="cls-8" points="1.07 14.35 1.14 14.24 17.3 23.55 17.24 23.65 1.07 14.35"/><rect class="cls-9" x="9.17" y="9.55" width="0.12" height="18.65" transform="translate(-11.73 17.45) rotate(-60.05)"/><rect class="cls-9" x="9.21" y="9.48" width="0.12" height="18.65" transform="translate(-11.65 17.43) rotate(-60.01)"/><polygon class="cls-10" points="1.2 14.13 1.26 14.03 17.42 23.34 17.36 23.44 1.2 14.13"/><rect class="cls-11" x="9.29" y="9.34" width="0.12" height="18.65" transform="translate(-11.49 17.46) rotate(-60.07)"/><rect class="cls-11" x="9.33" y="9.27" width="0.12" height="18.65" transform="translate(-11.41 17.49) rotate(-60.16)"/><polygon class="cls-10" points="1.32 13.92 1.38 13.82 17.55 23.12 17.48 23.23 1.32 13.92"/><polygon class="cls-10" points="1.36 13.85 1.42 13.75 17.59 23.05 17.52 23.16 1.36 13.85"/><rect class="cls-11" x="9.45" y="9.06" width="0.12" height="18.65" transform="translate(-11.17 17.48) rotate(-60.13)"/><polygon class="cls-12" points="1.44 13.71 1.5 13.61 17.67 22.91 17.61 23.02 1.44 13.71"/><rect class="cls-13" x="9.53" y="8.91" width="0.12" height="18.65" transform="translate(-11 17.49) rotate(-60.17)"/><rect class="cls-13" x="9.57" y="8.84" width="0.12" height="18.65" transform="translate(-10.92 17.48) rotate(-60.13)"/><polygon class="cls-14" points="1.56 13.5 1.62 13.39 17.79 22.7 17.73 22.81 1.56 13.5"/><rect class="cls-15" x="9.65" y="8.7" width="0.12" height="18.65" transform="translate(-10.76 17.43) rotate(-60)"/><rect class="cls-15" x="9.7" y="8.63" width="0.12" height="18.65" transform="translate(-10.68 17.44) rotate(-60.03)"/><rect class="cls-15" x="9.74" y="8.56" width="0.12" height="18.65" transform="translate(-10.59 17.43) rotate(-60)"/><rect class="cls-15" x="9.78" y="8.49" width="0.12" height="18.65" transform="translate(-10.51 17.46) rotate(-60.07)"/><rect class="cls-15" x="9.82" y="8.42" width="0.12" height="18.65" transform="translate(-10.43 17.42) rotate(-59.96)"/><rect class="cls-16" x="9.86" y="8.35" width="0.12" height="18.65" transform="translate(-10.35 17.45) rotate(-60.05)"/><polygon class="cls-17" points="1.85 13.01 1.91 12.9 18.07 22.21 18.01 22.31 1.85 13.01"/><rect class="cls-16" x="9.94" y="8.21" width="0.12" height="18.65" transform="translate(-10.19 17.43) rotate(-60.01)"/><rect class="cls-18" x="9.98" y="8.14" width="0.12" height="18.65" transform="translate(-10.11 17.42) rotate(-59.98)"/><rect class="cls-18" x="10.02" y="8.07" width="0.12" height="18.65" transform="translate(-10.02 17.49) rotate(-60.17)"/><rect class="cls-18" x="10.06" y="8" width="0.12" height="18.65" transform="translate(-9.94 17.45) rotate(-60.06)"/><rect class="cls-18" x="10.1" y="7.93" width="0.12" height="18.65" transform="translate(-9.86 17.49) rotate(-60.17)"/><rect class="cls-18" x="10.14" y="7.86" width="0.12" height="18.65" transform="translate(-9.78 17.48) rotate(-60.16)"/><polygon class="cls-19" points="2.13 12.51 2.19 12.41 18.36 21.71 18.3 21.82 2.13 12.51"/><rect class="cls-20" x="10.22" y="7.72" width="0.12" height="18.65" transform="translate(-9.62 17.5) rotate(-60.2)"/><polygon class="cls-19" points="2.21 12.37 2.27 12.27 18.44 21.57 18.38 21.68 2.21 12.37"/><polygon class="cls-19" points="2.25 12.3 2.31 12.2 18.48 21.5 18.42 21.61 2.25 12.3"/><rect class="cls-21" x="10.34" y="7.51" width="0.12" height="18.65" transform="translate(-9.37 17.45) rotate(-60.05)"/><rect class="cls-21" x="10.38" y="7.44" width="0.12" height="18.65" transform="translate(-9.29 17.44) rotate(-60.05)"/><polygon class="cls-22" points="2.37 12.09 2.43 11.99 18.6 21.29 18.54 21.4 2.37 12.09"/><rect class="cls-21" x="10.47" y="7.29" width="0.12" height="18.65" transform="translate(-9.13 17.44) rotate(-60.05)"/><polygon class="cls-22" points="2.45 11.95 2.52 11.85 18.68 21.15 18.62 21.26 2.45 11.95"/><polygon class="cls-23" points="2.49 11.88 2.56 11.77 18.72 21.08 18.66 21.19 2.49 11.88"/><rect class="cls-24" x="10.59" y="7.08" width="0.12" height="18.65" transform="translate(-8.89 17.45) rotate(-60.07)"/><rect class="cls-24" x="10.63" y="7.01" width="0.12" height="18.65" transform="translate(-8.81 17.44) rotate(-60.03)"/><rect class="cls-24" x="10.67" y="6.94" width="0.12" height="18.65" transform="translate(-8.72 17.45) rotate(-60.07)"/><rect class="cls-25" x="10.71" y="6.87" width="0.12" height="18.65" transform="translate(-8.64 17.49) rotate(-60.17)"/><polygon class="cls-26" points="2.7 11.53 2.76 11.42 18.92 20.73 18.86 20.83 2.7 11.53"/><rect class="cls-25" x="10.79" y="6.73" width="0.12" height="18.65" transform="translate(-8.48 17.47) rotate(-60.13)"/><rect class="cls-25" x="10.83" y="6.66" width="0.12" height="18.65" transform="translate(-8.4 17.46) rotate(-60.1)"/><rect class="cls-25" x="10.87" y="6.59" width="0.12" height="18.65" transform="translate(-8.31 17.47) rotate(-60.13)"/><rect class="cls-27" x="10.91" y="6.52" width="0.12" height="18.65" transform="translate(-8.24 17.45) rotate(-60.06)"/><polygon class="cls-28" points="2.9 11.18 2.96 11.07 19.13 20.38 19.07 20.48 2.9 11.18"/><rect class="cls-27" x="10.99" y="6.38" width="0.12" height="18.65" transform="translate(-8.08 17.41) rotate(-59.96)"/><rect class="cls-27" x="11.03" y="6.31" width="0.12" height="18.65" transform="translate(-7.99 17.45) rotate(-60.07)"/><rect class="cls-27" x="11.07" y="6.24" width="0.12" height="18.65" transform="translate(-7.91 17.43) rotate(-60)"/><rect class="cls-29" x="11.11" y="6.17" width="0.12" height="18.65" transform="translate(-7.83 17.44) rotate(-60.03)"/><polygon class="cls-30" points="3.1 10.82 3.16 10.72 19.33 20.02 19.27 20.13 3.1 10.82"/><rect class="cls-29" x="11.2" y="6.03" width="0.12" height="18.65" transform="translate(-7.67 17.44) rotate(-60.05)"/><rect class="cls-29" x="11.24" y="5.96" width="0.12" height="18.65" transform="translate(-7.59 17.41) rotate(-59.94)"/><rect class="cls-31" x="11.28" y="5.89" width="0.12" height="18.65" transform="translate(-7.5 17.44) rotate(-60.05)"/><rect class="cls-31" x="11.32" y="5.82" width="0.12" height="18.65" transform="translate(-7.42 17.44) rotate(-60.05)"/><polygon class="cls-32" points="3.31 10.47 3.37 10.37 19.53 19.67 19.47 19.78 3.31 10.47"/><rect class="cls-31" x="11.4" y="5.67" width="0.12" height="18.65" transform="translate(-7.25 17.48) rotate(-60.17)"/><rect class="cls-31" x="11.44" y="5.6" width="0.12" height="18.65" transform="translate(-7.17 17.47) rotate(-60.13)"/><polygon class="cls-33" points="3.43 10.26 3.49 10.15 19.65 19.46 19.59 19.57 3.43 10.26"/><rect class="cls-34" x="11.52" y="5.46" width="0.12" height="18.65" transform="translate(-7.01 17.49) rotate(-60.2)"/><rect class="cls-34" x="11.56" y="5.39" width="0.12" height="18.65" transform="translate(-6.93 17.47) rotate(-60.13)"/><polygon class="cls-35" points="3.55 10.05 3.61 9.94 19.78 19.25 19.71 19.36 3.55 10.05"/><polygon class="cls-35" points="3.59 9.98 3.65 9.87 19.82 19.18 19.75 19.28 3.59 9.98"/><polygon class="cls-35" points="3.63 9.91 3.69 9.8 19.86 19.11 19.8 19.21 3.63 9.91"/><polygon class="cls-35" points="3.67 9.84 3.73 9.73 19.9 19.04 19.84 19.14 3.67 9.84"/><rect class="cls-36" x="11.76" y="5.04" width="0.12" height="18.65" transform="translate(-6.53 17.44) rotate(-60.05)"/><polygon class="cls-35" points="3.75 9.7 3.81 9.59 19.98 18.9 19.92 19 3.75 9.7"/><rect class="cls-37" x="11.84" y="4.9" width="0.12" height="18.65" transform="translate(-6.37 17.43) rotate(-60.01)"/><rect class="cls-37" x="11.89" y="4.83" width="0.12" height="18.65" transform="translate(-6.28 17.45) rotate(-60.07)"/><rect class="cls-37" x="11.93" y="4.76" width="0.12" height="18.65" transform="translate(-6.2 17.43) rotate(-60.03)"/><rect class="cls-38" x="11.97" y="4.69" width="0.12" height="18.65" transform="translate(-6.12 17.45) rotate(-60.07)"/><polygon class="cls-39" points="3.95 9.34 4.01 9.24 20.18 18.54 20.12 18.65 3.95 9.34"/><rect class="cls-38" x="12.05" y="4.55" width="0.12" height="18.65" transform="translate(-5.96 17.43) rotate(-60.01)"/><polygon class="cls-39" points="4.04 9.2 4.1 9.1 20.26 18.4 20.2 18.51 4.04 9.2"/><rect class="cls-38" x="12.13" y="4.41" width="0.12" height="18.65" transform="translate(-5.79 17.48) rotate(-60.17)"/><rect class="cls-38" x="12.17" y="4.34" width="0.12" height="18.65" transform="translate(-5.71 17.44) rotate(-60.06)"/><rect class="cls-40" x="12.21" y="4.27" width="0.12" height="18.65" transform="translate(-5.63 17.46) rotate(-60.13)"/><rect class="cls-40" x="12.25" y="4.2" width="0.12" height="18.65" transform="translate(-5.55 17.45) rotate(-60.1)"/><polygon class="cls-41" points="4.24 8.85 4.3 8.74 20.46 18.05 20.4 18.16 4.24 8.85"/><rect class="cls-42" x="12.33" y="4.05" width="0.12" height="18.65" transform="translate(-5.38 17.46) rotate(-60.13)"/><polygon class="cls-43" points="4.32 8.71 4.38 8.6 20.55 17.91 20.48 18.02 4.32 8.71"/><polygon class="cls-43" points="4.36 8.64 4.42 8.53 20.59 17.84 20.53 17.95 4.36 8.64"/><rect class="cls-42" x="12.45" y="3.84" width="0.12" height="18.65" transform="translate(-5.14 17.44) rotate(-60.05)"/><rect class="cls-42" x="12.49" y="3.77" width="0.12" height="18.65" transform="translate(-5.06 17.44) rotate(-60.05)"/><polygon class="cls-44" points="4.48 8.43 4.54 8.32 20.71 17.63 20.65 17.73 4.48 8.43"/><rect class="cls-45" x="12.57" y="3.63" width="0.12" height="18.65" transform="translate(-4.9 17.44) rotate(-60.05)"/><rect class="cls-45" x="12.61" y="3.56" width="0.12" height="18.65" transform="translate(-4.82 17.44) rotate(-60.05)"/><polygon class="cls-44" points="4.6 8.22 4.66 8.11 20.83 17.42 20.77 17.52 4.6 8.22"/><rect class="cls-45" x="12.7" y="3.42" width="0.12" height="18.65" transform="translate(-4.66 17.44) rotate(-60.05)"/><rect class="cls-45" x="12.74" y="3.35" width="0.12" height="18.65" transform="translate(-4.58 17.43) rotate(-60.03)"/><rect class="cls-46" x="12.78" y="3.28" width="0.12" height="18.65" transform="translate(-4.5 17.43) rotate(-60.03)"/><rect class="cls-46" x="12.82" y="3.21" width="0.12" height="18.65" transform="translate(-4.4 17.48) rotate(-60.2)"/><rect class="cls-46" x="12.86" y="3.14" width="0.12" height="18.65" transform="translate(-4.32 17.47) rotate(-60.16)"/><polygon class="cls-47" points="4.85 7.79 4.91 7.69 21.07 16.99 21.01 17.1 4.85 7.79"/><polygon class="cls-47" points="4.89 7.72 4.95 7.62 21.11 16.92 21.05 17.03 4.89 7.72"/><rect class="cls-48" x="12.98" y="2.93" width="0.12" height="18.65" transform="translate(-4.08 17.46) rotate(-60.13)"/><polygon class="cls-47" points="4.97 7.58 5.03 7.48 21.2 16.78 21.13 16.89 4.97 7.58"/><polygon class="cls-47" points="5.01 7.51 5.07 7.41 21.23 16.71 21.18 16.82 5.01 7.51"/><rect class="cls-49" x="13.1" y="2.72" width="0.12" height="18.65" transform="translate(-3.85 17.42) rotate(-60.01)"/><polygon class="cls-50" points="5.09 7.37 5.15 7.27 21.32 16.57 21.26 16.68 5.09 7.37"/><rect class="cls-49" x="13.18" y="2.57" width="0.12" height="18.65" transform="translate(-3.68 17.42) rotate(-60)"/><rect class="cls-49" x="13.22" y="2.5" width="0.12" height="18.65" transform="translate(-3.6 17.43) rotate(-60.03)"/><rect class="cls-51" x="13.26" y="2.43" width="0.12" height="18.65" transform="translate(-3.52 17.42) rotate(-60)"/><rect class="cls-51" x="13.3" y="2.36" width="0.12" height="18.65" transform="translate(-3.43 17.44) rotate(-60.07)"/><polygon class="cls-52" points="5.29 7.02 5.35 6.91 21.52 16.22 21.46 16.32 5.29 7.02"/><rect class="cls-51" x="13.39" y="2.22" width="0.12" height="18.65" transform="translate(-3.27 17.43) rotate(-60.05)"/><polygon class="cls-52" points="5.37 6.88 5.43 6.77 21.6 16.08 21.54 16.18 5.37 6.88"/><rect class="cls-53" x="13.47" y="2.08" width="0.12" height="18.65" transform="translate(-3.11 17.42) rotate(-60.01)"/><rect class="cls-53" x="13.51" y="2.01" width="0.12" height="18.65" transform="translate(-3.02 17.45) rotate(-60.1)"/><rect class="cls-53" x="13.55" y="1.94" width="0.12" height="18.65" transform="translate(-2.93 17.47) rotate(-60.17)"/><rect class="cls-53" x="13.59" y="1.87" width="0.12" height="18.65" transform="translate(-2.86 17.44) rotate(-60.09)"/><rect class="cls-54" x="13.63" y="1.8" width="0.12" height="18.65" transform="translate(-2.77 17.48) rotate(-60.2)"/><rect class="cls-54" x="13.67" y="1.73" width="0.12" height="18.65" transform="translate(-2.69 17.46) rotate(-60.16)"/><polygon class="cls-55" points="5.66 6.39 5.72 6.28 21.88 15.59 21.82 15.69 5.66 6.39"/><polygon class="cls-55" points="5.7 6.32 5.76 6.21 21.93 15.52 21.86 15.62 5.7 6.32"/><rect class="cls-54" x="13.79" y="1.52" width="0.12" height="18.65" transform="translate(-2.46 17.43) rotate(-60.05)"/><polygon class="cls-56" points="5.78 6.17 5.84 6.07 22.01 15.37 21.95 15.48 5.78 6.17"/><rect class="cls-57" x="13.87" y="1.38" width="0.12" height="18.65" transform="translate(-2.3 17.43) rotate(-60.05)"/><rect class="cls-57" x="13.91" y="1.31" width="0.12" height="18.65" transform="translate(-2.22 17.43) rotate(-60.05)"/><polygon class="cls-56" points="5.9 5.96 5.96 5.86 22.13 15.16 22.07 15.27 5.9 5.96"/><rect class="cls-58" x="13.99" y="1.17" width="0.12" height="18.65" transform="translate(-2.05 17.43) rotate(-60.05)"/><rect class="cls-58" x="14.03" y="1.1" width="0.12" height="18.65" transform="translate(-1.98 17.42) rotate(-60.01)"/><rect class="cls-58" x="14.07" y="1.02" width="0.12" height="18.65" transform="translate(-1.89 17.43) rotate(-60.03)"/><rect class="cls-58" x="14.12" y="0.95" width="0.12" height="18.65" transform="translate(-1.81 17.44) rotate(-60.07)"/><rect class="cls-58" x="14.16" y="0.88" width="0.12" height="18.65" transform="translate(-1.73 17.43) rotate(-60.03)"/><polygon class="cls-59" points="6.14 5.54 6.21 5.43 22.37 14.74 22.31 14.85 6.14 5.54"/><rect class="cls-60" x="14.24" y="0.74" width="0.12" height="18.65" transform="translate(-1.55 17.47) rotate(-60.17)"/><polygon class="cls-59" points="6.22 5.4 6.29 5.29 22.45 14.6 22.39 14.71 6.22 5.4"/><rect class="cls-61" x="14.32" y="0.6" width="0.12" height="18.65" transform="translate(-1.39 17.45) rotate(-60.13)"/><rect class="cls-61" x="14.36" y="0.53" width="0.12" height="18.65" transform="translate(-1.31 17.45) rotate(-60.1)"/><polygon class="cls-62" points="6.35 5.19 6.41 5.08 22.57 14.39 22.51 14.49 6.35 5.19"/><rect class="cls-61" x="14.44" y="0.39" width="0.12" height="18.65" transform="translate(-1.15 17.44) rotate(-60.09)"/><rect class="cls-61" x="14.48" y="0.32" width="0.12" height="18.65" transform="translate(-1.07 17.44) rotate(-60.07)"/><rect class="cls-61" x="14.52" y="0.25" width="0.12" height="18.65" transform="translate(-1.01 17.41) rotate(-59.96)"/><rect class="cls-63" x="14.56" y="0.18" width="0.12" height="18.65" transform="translate(-0.91 17.44) rotate(-60.07)"/><rect class="cls-63" x="14.6" y="0.11" width="0.12" height="18.65" transform="translate(-0.84 17.42) rotate(-60)"/><polygon class="cls-64" points="6.59 4.76 6.65 4.66 22.82 13.96 22.76 14.07 6.59 4.76"/><polygon class="cls-64" points="6.63 4.7 6.69 4.59 22.86 13.89 22.8 14 6.63 4.7"/><rect class="cls-63" x="14.72" y="-0.1" width="0.12" height="18.65" transform="translate(-0.59 17.43) rotate(-60.05)"/><polygon class="cls-65" points="6.71 4.55 6.77 4.45 22.94 13.75 22.88 13.86 6.71 4.55"/><rect class="cls-66" x="14.8" y="-0.24" width="0.12" height="18.65" transform="translate(-0.43 17.43) rotate(-60.05)"/><rect class="cls-66" x="14.85" y="-0.31" width="0.12" height="18.65" transform="translate(-0.34 17.43) rotate(-60.05)"/><polygon class="cls-67" points="6.83 4.34 6.89 4.24 23.06 13.54 23 13.65 6.83 4.34"/><rect class="cls-68" x="14.93" y="-0.45" width="0.12" height="18.65" transform="translate(-0.16 17.47) rotate(-60.2)"/><rect class="cls-68" x="14.97" y="-0.52" width="0.12" height="18.65" transform="translate(-0.09 17.46) rotate(-60.16)"/><polygon class="cls-67" points="6.96 4.13 7.02 4.03 23.18 13.33 23.12 13.44 6.96 4.13"/><rect class="cls-68" x="15.05" y="-0.67" width="0.12" height="18.65" transform="translate(0.08 17.47) rotate(-60.2)"/><rect class="cls-68" x="15.09" y="-0.74" width="0.12" height="18.65" transform="translate(0.16 17.45) rotate(-60.13)"/><rect class="cls-69" x="15.13" y="-0.81" width="0.12" height="18.65" transform="translate(0.24 17.45) rotate(-60.13)"/><polygon class="cls-70" points="7.12 3.85 7.18 3.74 23.34 13.05 23.28 13.15 7.12 3.85"/><polygon class="cls-70" points="7.16 3.78 7.22 3.67 23.39 12.98 23.32 13.09 7.16 3.78"/><polygon class="cls-71" points="7.2 3.71 7.26 3.6 23.43 12.91 23.36 13.01 7.2 3.71"/><rect class="cls-72" x="15.29" y="-1.09" width="0.12" height="18.65" transform="translate(0.55 17.43) rotate(-60.05)"/><rect class="cls-72" x="15.33" y="-1.16" width="0.12" height="18.65" transform="translate(0.63 17.42) rotate(-60.03)"/><rect class="cls-72" x="15.37" y="-1.23" width="0.12" height="18.65" transform="translate(0.71 17.42) rotate(-60.03)"/><rect class="cls-72" x="15.41" y="-1.3" width="0.12" height="18.65" transform="translate(0.8 17.43) rotate(-60.07)"/><rect class="cls-73" x="15.45" y="-1.37" width="0.12" height="18.65" transform="translate(0.87 17.42) rotate(-60.03)"/><rect class="cls-73" x="15.49" y="-1.44" width="0.12" height="18.65" transform="translate(0.96 17.43) rotate(-60.05)"/><polygon class="cls-74" points="7.48 3.21 7.54 3.11 23.71 12.42 23.65 12.52 7.48 3.21"/><rect class="cls-73" x="15.58" y="-1.58" width="0.12" height="18.65" transform="translate(1.11 17.42) rotate(-60.01)"/><rect class="cls-75" x="15.62" y="-1.65" width="0.12" height="18.65" transform="translate(1.2 17.43) rotate(-60.06)"/><rect class="cls-75" x="15.66" y="-1.72" width="0.12" height="18.65" transform="translate(1.3 17.46) rotate(-60.17)"/><rect class="cls-75" x="15.7" y="-1.79" width="0.12" height="18.65" transform="translate(1.37 17.43) rotate(-60.06)"/><rect class="cls-75" x="15.74" y="-1.86" width="0.12" height="18.65" transform="translate(1.46 17.45) rotate(-60.13)"/><rect class="cls-75" x="15.78" y="-1.93" width="0.12" height="18.65" transform="translate(1.54 17.45) rotate(-60.13)"/><polygon class="cls-76" points="7.77 2.72 7.83 2.62 23.99 11.92 23.93 12.03 7.77 2.72"/><rect class="cls-77" x="15.86" y="-2.07" width="0.12" height="18.65" transform="translate(1.7 17.44) rotate(-60.13)"/><rect class="cls-77" x="15.9" y="-2.14" width="0.12" height="18.65" transform="translate(1.77 17.43) rotate(-60.07)"/><polygon class="cls-76" points="7.89 2.51 7.95 2.4 24.11 11.71 24.05 11.82 7.89 2.51"/><rect class="cls-78" x="15.98" y="-2.29" width="0.12" height="18.65" transform="translate(1.93 17.43) rotate(-60.05)"/><rect class="cls-78" x="16.02" y="-2.36" width="0.12" height="18.65" transform="translate(2.01 17.43) rotate(-60.05)"/><polygon class="cls-79" points="8.01 2.3 8.07 2.19 24.24 11.5 24.18 11.61 8.01 2.3"/><rect class="cls-78" x="16.1" y="-2.5" width="0.12" height="18.65" transform="translate(2.18 17.43) rotate(-60.05)"/><rect class="cls-78" x="16.14" y="-2.57" width="0.12" height="18.65" transform="translate(2.26 17.43) rotate(-60.05)"/><polygon class="cls-80" points="8.13 2.09 8.19 1.98 24.36 11.29 24.3 11.39 8.13 2.09"/><rect class="cls-81" x="16.22" y="-2.71" width="0.12" height="18.65" transform="translate(2.43 17.43) rotate(-60.07)"/><rect class="cls-81" x="16.26" y="-2.78" width="0.12" height="18.65" transform="translate(2.5 17.42) rotate(-60.03)"/><polygon class="cls-80" points="8.25 1.88 8.31 1.77 24.48 11.08 24.42 11.18 8.25 1.88"/><rect class="cls-81" x="16.35" y="-2.92" width="0.12" height="18.65" transform="translate(2.69 17.45) rotate(-60.17)"/><rect class="cls-82" x="16.39" y="-2.99" width="0.12" height="18.65" transform="translate(2.76 17.44) rotate(-60.13)"/><rect class="cls-82" x="16.43" y="-3.06" width="0.12" height="18.65" transform="translate(2.84 17.44) rotate(-60.13)"/><polygon class="cls-83" points="8.41 1.59 8.48 1.49 24.64 10.79 24.58 10.9 8.41 1.59"/><rect class="cls-82" x="16.51" y="-3.2" width="0.12" height="18.65" transform="translate(3.01 17.44) rotate(-60.13)"/><rect class="cls-84" x="16.55" y="-3.27" width="0.12" height="18.65" transform="translate(3.09 17.44) rotate(-60.13)"/><rect class="cls-84" x="16.59" y="-3.34" width="0.12" height="18.65" transform="translate(3.15 17.42) rotate(-60.05)"/><rect class="cls-84" x="16.63" y="-3.41" width="0.12" height="18.65" transform="translate(3.23 17.41) rotate(-60.01)"/><rect class="cls-84" x="16.67" y="-3.48" width="0.12" height="18.65" transform="translate(3.31 17.42) rotate(-60.03)"/><rect class="cls-84" x="16.71" y="-3.55" width="0.12" height="18.65" transform="translate(3.39 17.41) rotate(-60)"/><rect class="cls-85" x="16.75" y="-3.62" width="0.12" height="18.65" transform="translate(3.47 17.42) rotate(-60.03)"/><rect class="cls-85" x="16.79" y="-3.69" width="0.12" height="18.65" transform="translate(3.55 17.41) rotate(-60)"/><rect class="cls-85" x="16.83" y="-3.77" width="0.12" height="18.65" transform="translate(3.64 17.42) rotate(-60.05)"/><polygon class="cls-86" points="8.82 0.89 8.88 0.79 25.05 10.09 24.99 10.2 8.82 0.89"/><rect class="cls-87" x="16.91" y="-3.91" width="0.12" height="18.65" transform="translate(3.8 17.42) rotate(-60.05)"/><polygon class="cls-88" points="8.9 0.75 8.96 0.64 25.13 9.95 25.07 10.06 8.9 0.75"/><polygon class="cls-88" points="8.94 0.68 9 0.57 25.17 9.88 25.11 9.98 8.94 0.68"/><rect class="cls-87" x="17.04" y="-4.12" width="0.12" height="18.65" transform="translate(4.06 17.43) rotate(-60.1)"/><rect class="cls-87" x="17.08" y="-4.19" width="0.12" height="18.65" transform="translate(4.16 17.45) rotate(-60.17)"/><rect class="cls-89" x="17.12" y="-4.26" width="0.12" height="18.65" transform="translate(4.22 17.43) rotate(-60.09)"/><rect class="cls-89" x="17.16" y="-4.33" width="0.12" height="18.65" transform="translate(4.32 17.45) rotate(-60.2)"/><rect class="cls-89" x="17.2" y="-4.4" width="0.12" height="18.65" transform="translate(4.39 17.44) rotate(-60.13)"/><polygon class="cls-90" points="9.19 0.26 9.25 0.15 25.41 9.46 25.35 9.56 9.19 0.26"/><rect class="cls-91" x="17.28" y="-4.54" width="0.12" height="18.65" transform="translate(4.54 17.42) rotate(-60.05)"/><rect class="cls-91" x="17.32" y="-4.61" width="0.12" height="18.65" transform="translate(4.62 17.42) rotate(-60.05)"/><rect class="cls-91" x="17.38" y="-4.65" width="0.05" height="18.65" transform="translate(4.66 17.42) rotate(-60.05)"/></g><path class="cls-92" d="M27.36,14.15v2.79H26.28V9.74H28.2a7.92,7.92,0,0,1,1.19.07,2.56,2.56,0,0,1,.93.31,2,2,0,0,1,1.06,1.81A2.1,2.1,0,0,1,31.11,13a1.9,1.9,0,0,1-.72.74,2.48,2.48,0,0,1-1,.34,10.7,10.7,0,0,1-1.39.07Zm5,2.79V9.74h1.07v7.2ZM40,15.17c0-.61,0-1.21,0-1.81V9.74h1v7.2h-1L37.1,13c-.37-.49-.73-1-1.09-1.48,0,.6,0,1.2,0,1.8v3.62H35V9.74h1l3,3.95c.37.49.74,1,1.1,1.48Zm7.31.59V14.23H45.77v-1h2.65v3l0,0a4,4,0,0,1-1.15.53,4.61,4.61,0,0,1-1.33.2,3.93,3.93,0,0,1-1.48-.28A3.72,3.72,0,0,1,43.24,16a3.62,3.62,0,0,1-.78-1.18,4,4,0,0,1,0-2.94,3.51,3.51,0,0,1,.78-1.19,3.55,3.55,0,0,1,1.2-.78A4,4,0,0,1,46,9.63a4.05,4.05,0,0,1,2.2.6l0,0V11.5l-.12-.1a3.72,3.72,0,0,0-1-.56,3.43,3.43,0,0,0-1.15-.2,2.79,2.79,0,0,0-1.41.36,2.6,2.6,0,0,0-.95,1,2.87,2.87,0,0,0-.34,1.37,2.83,2.83,0,0,0,.2,1,2.76,2.76,0,0,0,.52.87,2.54,2.54,0,0,0,.86.59,3.2,3.2,0,0,0,2.52-.08Zm6.13-5H51.11v-1h5.81v1H54.55v6.22H53.48V10.72Zm4.34,6.22V9.74h1.07v7.2Zm3.6-5.36c0,.43,0,.87,0,1.31v4.05h-1V9.74h1l2.46,3.53,2.47-3.53h1v7.2H66.25V12.89c0-.44,0-.87,0-1.31l-.83,1.21-1.6,2.29-1.6-2.29c-.28-.4-.55-.81-.82-1.21Zm8.48-.86v2h2.75v1H69.9V16h3.23v1H68.82V9.74H73v1Zm4.24,4.08a3.95,3.95,0,0,1,0-2.92,3.54,3.54,0,0,1,.77-1.18,3.7,3.7,0,0,1,1.16-.78,3.79,3.79,0,0,1,1.45-.29,3.67,3.67,0,0,1,1.86.49,3.54,3.54,0,0,1,1.32,1.34,3.79,3.79,0,0,1,.48,1.88,3.73,3.73,0,0,1-.48,1.88,3.4,3.4,0,0,1-1.32,1.34,3.67,3.67,0,0,1-1.86.49,3.61,3.61,0,0,1-1.45-.29A3.39,3.39,0,0,1,74.91,16a3.54,3.54,0,0,1-.77-1.18Zm8.54,1.11a2.62,2.62,0,0,1-.38-1,7.56,7.56,0,0,1-.1-1.34V9.74h1.07v3.71a7.88,7.88,0,0,0,.06,1.09,1.85,1.85,0,0,0,.21.69,1.66,1.66,0,0,0,1.61.81,1.63,1.63,0,0,0,1.59-.81,2,2,0,0,0,.2-.68,9.47,9.47,0,0,0,0-1.07V9.74H88v3.7a8.72,8.72,0,0,1-.1,1.44,2.67,2.67,0,0,1-.38,1,2.34,2.34,0,0,1-1,.84,3.43,3.43,0,0,1-1.45.3,3.28,3.28,0,0,1-1.45-.3,2.35,2.35,0,0,1-1-.84Zm8.55-5.19H88.86v-1h5.81v1H92.3v6.22H91.23V10.72ZM27.36,13.19h.77a9,9,0,0,0,1,0,1.53,1.53,0,0,0,.61-.21,1,1,0,0,0,.53-1,1.07,1.07,0,0,0-.62-1,1.65,1.65,0,0,0-.62-.18c-.31,0-.63,0-.95,0h-.76v2.47Zm47.57.15a3,3,0,0,0,.33,1.37,2.48,2.48,0,0,0,.93,1,2.64,2.64,0,0,0,2.66,0,2.45,2.45,0,0,0,.92-1,3,3,0,0,0,0-2.74,2.45,2.45,0,0,0-.92-1,2.51,2.51,0,0,0-1.33-.36,2.6,2.6,0,0,0-1,.21,2.25,2.25,0,0,0-.82.57,2.5,2.5,0,0,0-.54.86A2.77,2.77,0,0,0,74.93,13.34Z"/></g></g></svg>